Coordinates
version=1
nRows=65
nColumns=12
inDegrees=yes

Units are S.I. units (second, meters, Newtons, ...)
Angles are in degrees

endheader
time	SC_y	SC_z	SC_x	AC_y	AC_z	AC_x	GH_y	GH_z	GH_yy	EL_x	PS_y
       0.0              -21.19          4.844          65.34           55.9         -3.295           5.29         -152.8          44.17         -57.71          113.3          40.01
    0.0198              -21.19          4.845          65.34           55.9         -3.296           5.29         -152.8          44.17         -57.71          113.3          40.01
    0.0396               -21.2          4.846          65.34           55.9         -3.297           5.29         -152.8          44.18         -57.71          113.3           40.0
    0.0594               -21.2          4.848          65.34           55.9         -3.297           5.29         -152.7          44.18         -57.72          113.3           40.0
    0.0792               -21.2          4.849          65.35           55.9         -3.299           5.29         -152.7          44.19         -57.72          113.3          39.99
     0.099               -21.2           4.85          65.35          55.91           -3.3           5.29         -152.6          44.19         -57.73          113.3          39.99
    0.1188              -21.21          4.851          65.35          55.91         -3.301           5.29         -152.6           44.2         -57.73          113.3          39.98
    0.1386              -21.21          4.853          65.35          55.91         -3.302           5.29         -152.5           44.2         -57.74          113.3          39.97
    0.1584              -21.21          4.854          65.35          55.91         -3.303           5.29         -152.5          44.21         -57.75          113.3          39.96
    0.1782              -21.21          4.856          65.36          55.92         -3.305           5.29         -152.4          44.22         -57.75          113.3          39.95
     0.198              -21.22          4.858          65.36          55.92         -3.306           5.29         -152.4          44.23         -57.76          113.3          39.95
    0.2178              -21.22           4.86          65.36          55.92         -3.308           5.29         -152.3          44.23         -57.77          113.3          39.94
    0.2376              -21.23          4.862          65.36          55.92          -3.31           5.29         -152.2          44.24         -57.78          113.3          39.93
    0.2574              -21.23          4.864          65.37          55.93         -3.312          5.289         -152.1          44.25         -57.78          113.3          39.91
    0.2772              -21.24          4.866          65.37          55.93         -3.314          5.289         -152.0          44.26         -57.79          113.3           39.9
     0.297              -21.24          4.869          65.37          55.94         -3.316          5.289         -152.0          44.27          -57.8          113.3          39.89
    0.3168              -21.25          4.872          65.38          55.94         -3.319          5.289         -151.9          44.29         -57.82          113.3          39.87
    0.3366              -21.25          4.875          65.38          55.94         -3.321          5.289         -151.7           44.3         -57.83          113.3          39.86
    0.3564              -21.26          4.878          65.39          55.95         -3.324          5.289         -151.6          44.31         -57.84          113.3          39.84
    0.3762              -21.27          4.882          65.39          55.95         -3.327          5.289         -151.5          44.33         -57.86          113.3          39.82
     0.396              -21.27          4.886           65.4          55.96         -3.331          5.289         -151.3          44.35         -57.87          113.2           39.8
    0.4158              -21.28           4.89           65.4          55.97         -3.335          5.288         -151.2          44.37         -57.89          113.2          39.78
    0.4356              -21.29          4.895          65.41          55.98         -3.339          5.288         -151.0          44.39         -57.91          113.2          39.75
    0.4554               -21.3          4.901          65.42          55.98         -3.344          5.288         -150.8          44.41         -57.93          113.2          39.72
    0.4752              -21.32          4.907          65.43          55.99         -3.349          5.288         -150.6          44.44         -57.96          113.2          39.69
     0.495              -21.33          4.914          65.43           56.0         -3.355          5.288         -150.4          44.47         -57.99          113.2          39.66
    0.5148              -21.34          4.921          65.44          56.01         -3.362          5.287         -150.1           44.5         -58.02          113.2          39.62
    0.5346              -21.36           4.93          65.46          56.03         -3.369          5.287         -149.8          44.54         -58.05          113.1          39.57
    0.5544              -21.38           4.94          65.47          56.04         -3.377          5.287         -149.4          44.58         -58.09          113.1          39.52
    0.5742               -21.4           4.95          65.48          56.06         -3.387          5.286         -149.1          44.63         -58.13          113.1          39.46
     0.594              -21.43          4.963           65.5          56.08         -3.398          5.286         -148.6          44.68         -58.18          113.1           39.4
    0.6138              -21.45          4.977          65.52           56.1          -3.41          5.285         -148.1          44.74         -58.24          113.0          39.33
    0.6336              -21.49          4.994          65.54          56.12         -3.425          5.284         -147.5          44.81         -58.31          113.0          39.24
    0.6534              -21.52          5.013          65.57          56.15         -3.441          5.284         -146.8           44.9         -58.39          112.9          39.14
    0.6732              -21.57          5.036           65.6          56.19         -3.461          5.283         -146.0          44.99         -58.48          112.9          39.02
     0.693              -21.62          5.062          65.64          56.23         -3.484          5.282         -145.1          45.11         -58.59          112.8          38.89
    0.7128              -21.68          5.094          65.68          56.27         -3.512          5.281         -143.9          45.24         -58.71          112.8          38.72
    0.7326              -21.76          5.132          65.73          56.33         -3.544          5.279         -142.6          45.41         -58.87          112.7          38.53
    0.7524              -21.85          5.178          65.79           56.4         -3.584          5.277         -141.0           45.6         -59.05          112.6          38.29
    0.7722              -21.96          5.233          65.87          56.48         -3.633          5.275         -139.0          45.85         -59.28          112.4           38.0
     0.792              -22.09          5.302          65.96          56.59         -3.693          5.273         -136.5          46.14         -59.56          112.3          37.64
    0.8118              -22.26          5.389          66.08          56.72         -3.768          5.269         -133.4          46.51          -59.9          112.1          37.19
    0.8316              -22.48          5.497          66.22          56.88         -3.862          5.265         -129.6          46.98         -60.34          111.8          36.63
    0.8514              -22.75          5.635          66.41          57.09         -3.982           5.26         -124.7          47.58          -60.9          111.5          35.92
    0.8712               -23.1          5.811          66.65          57.35         -4.135          5.253         -118.4          48.34         -61.61          111.1           35.0
     0.891              -23.54          6.038          66.95          57.69         -4.332          5.244         -110.3          49.31         -62.53          110.5          33.83
    0.9108              -24.11          6.327          67.35          58.13         -4.583          5.233         -100.0          50.56         -63.69          109.9          32.33
    0.9306              -24.83          6.691          67.84          58.68         -4.899          5.219         -87.06          52.13         -65.16          109.0          30.45
    0.9504               -25.7          7.134          68.44          59.34         -5.284          5.202         -71.27          54.04         -66.95          108.0          28.15
    0.9702              -26.72          7.648          69.13          60.12          -5.73          5.182         -52.97          56.25         -69.03          106.8          25.49
      0.99              -27.81          8.204          69.88          60.95         -6.213           5.16         -33.16          58.65         -71.27          105.5          22.61
      1.01              -28.91           8.76          70.64          61.79         -6.697          5.139         -13.34          61.05         -73.52          104.2          19.72
      1.03              -29.92          9.274          71.33          62.56         -7.143          5.119          4.955          63.26         -75.59          103.0          17.06
     1.049              -30.79          9.717          71.93          63.23         -7.528          5.102          20.74          65.18         -77.38          101.9          14.77
     1.069              -31.51          10.08          72.42          63.78         -7.844          5.088           33.7          66.74         -78.85          101.1          12.88
     1.089              -32.08          10.37          72.81          64.21         -8.095          5.077           44.0          67.99         -80.02          100.4          11.38
     1.109              -32.52           10.6          73.12          64.55         -8.292          5.068          52.07          68.97         -80.94          99.87          10.21
     1.129              -32.87          10.77          73.36          64.82         -8.445          5.061          58.35          69.73         -81.65          99.46          9.294
     1.148              -33.14          10.91          73.54          65.03         -8.565          5.056          63.26          70.32         -82.21          99.14           8.58
     1.168              -33.36          11.02          73.69          65.19         -8.659          5.052          67.13          70.79         -82.64          98.89          8.018
     1.188              -33.53          11.11          73.81          65.32         -8.734          5.048          70.19          71.16         -82.99          98.68          7.572
     1.208              -33.66          11.17           73.9          65.42         -8.794          5.046          72.65          71.46         -83.27          98.52          7.214
     1.228              -33.77          11.23          73.98          65.51         -8.843          5.044          74.64           71.7          -83.5          98.39          6.924
     1.247              -33.86          11.28          74.04          65.58         -8.882          5.042          76.28           71.9         -83.68          98.28          6.687
     1.267              -33.94          11.31          74.09          65.63         -8.915           5.04          77.62          72.06         -83.83           98.2          6.491
